<svg width="180px" height="60px" viewBox="0 0 180 60" xmlns="http://www.w3.org/2000/svg" xmlns:xlink="http://www.w3.org/1999/xlink" version="1.1">
 <!-- Generated by Pixelmator Pro 2.0.5 -->
 <g id="app-store-badge">
  <g id="Badge">
   <g id="Group">
    <g id="Path">
     <path id="Path-1" d="M165.202 -0 L14.302 -0 C13.752 -0 13.209 -0 12.66 0.003 12.201 0.006 11.745 0.015 11.281 0.022 10.274 0.034 9.269 0.123 8.276 0.287 7.283 0.455 6.322 0.772 5.424 1.228 4.528 1.687 3.709 2.283 2.996 2.996 2.28 3.706 1.684 4.527 1.229 5.427 0.773 6.326 0.457 7.288 0.292 8.282 0.125 9.275 0.035 10.279 0.023 11.285 0.009 11.745 0.007 12.207 -0 12.667 L-0 47.338 C0.007 47.804 0.009 48.255 0.023 48.721 0.035 49.727 0.125 50.731 0.292 51.724 0.457 52.718 0.773 53.681 1.229 54.58 1.683 55.477 2.28 56.295 2.996 57.001 3.706 57.717 4.526 58.314 5.424 58.77 6.322 59.226 7.283 59.545 8.276 59.716 9.27 59.879 10.274 59.968 11.281 59.981 11.745 59.991 12.201 59.997 12.66 59.997 13.209 60 13.752 60 14.302 60 L165.202 60 C165.741 60 166.289 60 166.828 59.997 167.285 59.997 167.754 59.991 168.211 59.981 169.216 59.968 170.219 59.88 171.211 59.716 172.207 59.544 173.171 59.225 174.073 58.77 174.971 58.314 175.79 57.717 176.499 57.001 177.213 56.292 177.811 55.475 178.271 54.58 178.724 53.681 179.038 52.717 179.2 51.724 179.367 50.731 179.46 49.727 179.479 48.721 179.484 48.255 179.484 47.804 179.484 47.338 179.496 46.793 179.496 46.251 179.496 45.697 L179.496 14.304 C179.496 13.755 179.496 13.21 179.484 12.667 179.484 12.207 179.484 11.745 179.479 11.285 179.46 10.279 179.367 9.275 179.2 8.282 179.037 7.289 178.724 6.326 178.271 5.427 177.346 3.623 175.877 2.154 174.073 1.227 173.171 0.773 172.207 0.456 171.211 0.287 170.219 0.122 169.216 0.033 168.211 0.022 167.754 0.015 167.285 0.006 166.828 0.003 166.289 -0 165.741 -0 165.202 -0 Z" fill="#a6a6a6" fill-opacity="1" stroke="none"/>
     <path id="Path-2" d="M12.667 58.688 C12.21 58.688 11.764 58.682 11.311 58.671 10.371 58.659 9.434 58.577 8.507 58.427 7.642 58.278 6.805 58.001 6.022 57.605 5.246 57.212 4.539 56.697 3.926 56.08 3.305 55.47 2.788 54.762 2.396 53.985 1.999 53.203 1.724 52.365 1.581 51.5 1.427 50.57 1.343 49.629 1.331 48.687 1.322 48.371 1.31 47.317 1.31 47.317 L1.31 12.667 C1.31 12.667 1.323 11.629 1.332 11.325 1.343 10.384 1.426 9.445 1.58 8.517 1.723 7.649 1.998 6.808 2.395 6.023 2.786 5.247 3.3 4.539 3.918 3.927 4.534 3.308 5.244 2.791 6.021 2.393 6.802 1.998 7.638 1.723 8.501 1.577 9.432 1.425 10.372 1.342 11.314 1.331 L12.668 1.313 166.821 1.313 168.19 1.332 C169.124 1.343 170.056 1.424 170.978 1.575 171.85 1.723 172.694 2 173.484 2.397 175.041 3.199 176.308 4.469 177.107 6.027 177.498 6.806 177.768 7.64 177.91 8.5 178.065 9.436 178.153 10.383 178.17 11.331 178.175 11.756 178.175 12.212 178.175 12.667 178.187 13.229 178.187 13.764 178.187 14.304 L178.187 45.697 C178.187 46.242 178.187 46.774 178.175 47.31 178.175 47.798 178.175 48.245 178.169 48.705 178.151 49.636 178.066 50.566 177.913 51.485 177.773 52.356 177.499 53.201 177.103 53.99 176.707 54.758 176.193 55.46 175.579 56.068 174.966 56.689 174.258 57.207 173.48 57.602 172.692 58.001 171.849 58.279 170.978 58.427 170.051 58.578 169.114 58.66 168.174 58.671 167.735 58.682 167.275 58.688 166.828 58.688 L165.202 58.69 Z" fill="#000000" fill-opacity="1" stroke="none"/>
    </g>
    <g id="_Group_">
     <g id="_Group_2">
      <g id="_Group_3">
       <path id="_Path_" d="M37.153 30.451 C37.186 27.906 38.52 25.556 40.688 24.223 39.314 22.261 37.096 21.061 34.701 20.986 32.183 20.722 29.741 22.494 28.457 22.494 27.149 22.494 25.172 21.013 23.044 21.056 20.244 21.147 17.697 22.7 16.335 25.148 13.434 30.171 15.598 37.552 18.377 41.612 19.767 43.6 21.392 45.821 23.518 45.742 25.599 45.656 26.376 44.416 28.887 44.416 31.375 44.416 32.104 45.742 34.274 45.692 36.506 45.656 37.913 43.695 39.255 41.689 40.254 40.272 41.022 38.706 41.532 37.05 38.881 35.928 37.156 33.33 37.153 30.451 Z" fill="#ffffff" fill-opacity="1" stroke="none"/>
       <path id="_Path_2" d="M33.056 18.316 C34.273 16.855 34.873 14.977 34.728 13.08 32.868 13.276 31.15 14.165 29.916 15.57 28.698 16.956 28.081 18.77 28.201 20.612 30.085 20.631 31.875 19.785 33.056 18.316 Z" fill="#ffffff" fill-opacity="1" stroke="none"/>
      </g>
     </g>
     <g id="Group-1">
      <path id="Shape" d="M63.453 40.709 L56.353 40.709 54.648 45.744 51.641 45.744 58.366 27.117 61.491 27.117 68.216 45.744 65.157 45.744 Z M57.089 38.386 L62.717 38.386 59.942 30.215 59.865 30.215 Z" fill="#ffffff" fill-opacity="1" stroke="none"/>
      <path id="Shape-1" d="M82.74 38.955 C82.74 43.175 80.481 45.886 77.072 45.886 75.31 45.978 73.65 45.056 72.799 43.51 L72.735 43.51 72.735 50.237 69.947 50.237 69.947 32.164 72.645 32.164 72.645 34.422 72.697 34.422 C73.586 32.887 75.247 31.964 77.021 32.021 80.467 32.021 82.74 34.746 82.74 38.955 Z M79.874 38.955 C79.874 36.205 78.453 34.397 76.285 34.397 74.156 34.397 72.723 36.243 72.723 38.955 72.723 41.691 74.156 43.523 76.285 43.523 78.453 43.523 79.874 41.729 79.874 38.955 Z" fill="#ffffff" fill-opacity="1" stroke="none"/>
      <path id="Shape-2" d="M97.687 38.955 C97.687 43.175 95.428 45.886 92.019 45.886 90.257 45.978 88.598 45.056 87.746 43.51 L87.682 43.51 87.682 50.237 84.894 50.237 84.894 32.164 87.592 32.164 87.592 34.422 87.644 34.422 C88.533 32.887 90.194 31.964 91.968 32.021 95.415 32.021 97.687 34.746 97.687 38.955 Z M94.822 38.955 C94.822 36.205 93.401 34.397 91.233 34.397 89.103 34.397 87.67 36.243 87.67 38.955 87.67 41.691 89.103 43.523 91.233 43.523 93.401 43.523 94.822 41.729 94.822 38.955 Z" fill="#ffffff" fill-opacity="1" stroke="none"/>
      <path id="Path-3" d="M107.566 40.554 C107.772 42.401 109.567 43.614 112.019 43.614 114.368 43.614 116.059 42.401 116.059 40.736 116.059 39.29 115.039 38.424 112.625 37.831 L110.211 37.249 C106.791 36.423 105.203 34.824 105.203 32.228 105.203 29.014 108.004 26.807 111.981 26.807 115.917 26.807 118.615 29.014 118.706 32.228 L115.892 32.228 C115.723 30.369 114.187 29.247 111.941 29.247 109.696 29.247 108.159 30.382 108.159 32.035 108.159 33.351 109.14 34.126 111.541 34.72 L113.593 35.224 C117.415 36.127 119.003 37.663 119.003 40.387 119.003 43.872 116.227 46.055 111.812 46.055 107.681 46.055 104.892 43.923 104.712 40.554 Z" fill="#ffffff" fill-opacity="1" stroke="none"/>
      <path id="Path-4" d="M125.019 28.95 L125.019 32.164 127.602 32.164 127.602 34.371 125.019 34.371 125.019 41.858 C125.019 43.021 125.536 43.563 126.672 43.563 126.978 43.558 127.284 43.536 127.589 43.498 L127.589 45.693 C127.078 45.788 126.559 45.831 126.04 45.822 123.291 45.822 122.219 44.789 122.219 42.155 L122.219 34.371 120.244 34.371 120.244 32.164 122.219 32.164 122.219 28.95 Z" fill="#ffffff" fill-opacity="1" stroke="none"/>
      <path id="Shape-3" d="M129.098 38.955 C129.098 34.682 131.614 31.997 135.538 31.997 139.476 31.997 141.981 34.682 141.981 38.955 141.981 43.239 139.489 45.913 135.538 45.913 131.589 45.913 129.098 43.239 129.098 38.955 Z M139.14 38.955 C139.14 36.023 137.797 34.293 135.538 34.293 133.28 34.293 131.938 36.037 131.938 38.955 131.938 41.897 133.28 43.614 135.538 43.614 137.797 43.614 139.14 41.897 139.14 38.955 Z" fill="#ffffff" fill-opacity="1" stroke="none"/>
      <path id="Path-5" d="M144.279 32.164 L146.938 32.164 146.938 34.475 147.002 34.475 C147.373 32.987 148.736 31.963 150.269 32.021 150.59 32.02 150.91 32.055 151.224 32.125 L151.224 34.733 C150.818 34.609 150.395 34.552 149.971 34.564 149.152 34.531 148.359 34.858 147.8 35.459 147.242 36.059 146.974 36.874 147.067 37.689 L147.067 45.744 144.279 45.744 Z" fill="#ffffff" fill-opacity="1" stroke="none"/>
      <path id="Shape-4" d="M164.076 41.755 C163.701 44.221 161.301 45.913 158.229 45.913 154.278 45.913 151.826 43.266 151.826 39.019 151.826 34.759 154.291 31.997 158.112 31.997 161.869 31.997 164.232 34.578 164.232 38.695 L164.232 39.65 154.64 39.65 154.64 39.819 C154.55 40.83 154.899 41.831 155.598 42.567 156.297 43.303 157.279 43.703 158.293 43.666 159.646 43.792 160.921 43.015 161.429 41.755 Z M154.653 37.702 L161.443 37.702 C161.493 36.794 161.163 35.905 160.53 35.251 159.898 34.597 159.021 34.236 158.112 34.255 157.195 34.25 156.314 34.611 155.664 35.258 155.015 35.905 154.651 36.785 154.653 37.702 Z" fill="#ffffff" fill-opacity="1" stroke="none"/>
     </g>
    </g>
   </g>
   <g id="_Group_4">
    <g id="Group-2">
     <path id="Shape-5" d="M73.739 13.097 C74.923 13.012 76.082 13.462 76.898 14.323 77.713 15.185 78.1 16.367 77.951 17.544 77.951 20.403 76.405 22.047 73.739 22.047 L70.506 22.047 70.506 13.097 Z M71.897 20.781 L73.584 20.781 C74.43 20.832 75.253 20.498 75.826 19.874 76.398 19.249 76.659 18.4 76.536 17.562 76.65 16.727 76.386 15.885 75.815 15.266 75.243 14.646 74.425 14.315 73.584 14.361 L71.897 14.361 Z" fill="#ffffff" fill-opacity="1" stroke="none"/>
     <path id="Shape-6" d="M79.521 18.667 C79.405 17.456 79.986 16.284 81.019 15.643 82.053 15.002 83.36 15.002 84.394 15.643 85.427 16.284 86.007 17.456 85.892 18.667 86.01 19.878 85.43 21.052 84.395 21.695 83.361 22.338 82.052 22.338 81.017 21.695 79.983 21.052 79.403 19.878 79.521 18.667 Z M84.521 18.667 C84.521 17.202 83.863 16.346 82.709 16.346 81.55 16.346 80.898 17.202 80.898 18.667 80.898 20.142 81.55 20.992 82.709 20.992 83.863 20.992 84.521 20.136 84.521 18.667 Z" fill="#ffffff" fill-opacity="1" stroke="none"/>
     <path id="Path-6" d="M94.36 22.047 L92.977 22.047 91.581 17.072 91.476 17.072 90.085 22.047 88.716 22.047 86.854 15.292 88.206 15.292 89.416 20.446 89.516 20.446 90.904 15.292 92.183 15.292 93.572 20.446 93.677 20.446 94.881 15.292 96.214 15.292 Z" fill="#ffffff" fill-opacity="1" stroke="none"/>
     <path id="Path-7" d="M97.78 15.292 L99.063 15.292 99.063 16.365 99.163 16.365 C99.51 15.575 100.319 15.092 101.179 15.162 101.844 15.112 102.497 15.367 102.952 15.856 103.406 16.345 103.614 17.014 103.517 17.674 L103.517 22.047 102.184 22.047 102.184 18.009 C102.184 16.923 101.712 16.384 100.726 16.384 100.275 16.363 99.836 16.54 99.526 16.869 99.216 17.198 99.065 17.646 99.113 18.095 L99.113 22.047 97.78 22.047 Z" fill="#ffffff" fill-opacity="1" stroke="none"/>
     <path id="Path-8" d="M105.641 12.656 L106.974 12.656 106.974 22.047 105.641 22.047 Z" fill="#ffffff" fill-opacity="1" stroke="none"/>
     <path id="Shape-7" d="M108.827 18.667 C108.711 17.456 109.292 16.284 110.325 15.643 111.359 15.001 112.666 15.001 113.7 15.643 114.733 16.284 115.314 17.456 115.198 18.667 115.316 19.879 114.736 21.052 113.701 21.695 112.667 22.338 111.358 22.338 110.323 21.695 109.289 21.052 108.709 19.879 108.827 18.667 Z M113.826 18.667 C113.826 17.202 113.168 16.346 112.014 16.346 110.855 16.346 110.204 17.202 110.204 18.667 110.204 20.142 110.856 20.992 112.014 20.992 113.168 20.992 113.826 20.136 113.826 18.667 Z" fill="#ffffff" fill-opacity="1" stroke="none"/>
     <path id="Shape-8" d="M116.601 20.136 C116.601 18.921 117.507 18.22 119.114 18.12 L120.943 18.015 120.943 17.432 C120.943 16.718 120.471 16.315 119.56 16.315 118.816 16.315 118.301 16.589 118.153 17.066 L116.862 17.066 C116.998 15.906 118.09 15.162 119.622 15.162 121.315 15.162 122.27 16.005 122.27 17.432 L122.27 22.047 120.987 22.047 120.987 21.097 120.882 21.097 C120.446 21.791 119.671 22.196 118.853 22.158 118.279 22.218 117.708 22.032 117.279 21.647 116.85 21.262 116.604 20.713 116.601 20.136 Z M120.943 19.559 L120.943 18.995 119.294 19.1 C118.364 19.162 117.942 19.479 117.942 20.074 117.942 20.682 118.469 21.036 119.194 21.036 119.623 21.079 120.052 20.947 120.382 20.668 120.711 20.39 120.914 19.99 120.943 19.559 Z" fill="#ffffff" fill-opacity="1" stroke="none"/>
     <path id="Shape-9" d="M124.022 18.667 C124.022 16.532 125.119 15.18 126.826 15.18 127.688 15.14 128.495 15.602 128.897 16.365 L128.997 16.365 128.997 12.656 130.33 12.656 130.33 22.047 129.053 22.047 129.053 20.979 128.947 20.979 C128.514 21.736 127.697 22.19 126.826 22.158 125.108 22.158 124.022 20.806 124.022 18.667 Z M125.399 18.667 C125.399 20.099 126.075 20.961 127.204 20.961 128.327 20.961 129.022 20.087 129.022 18.672 129.022 17.265 128.32 16.378 127.204 16.378 126.082 16.378 125.399 17.246 125.399 18.667 Z" fill="#ffffff" fill-opacity="1" stroke="none"/>
     <path id="Shape-10" d="M135.845 18.667 C135.729 17.456 136.31 16.284 137.343 15.643 138.376 15.002 139.684 15.002 140.717 15.643 141.751 16.284 142.331 17.456 142.216 18.667 142.334 19.878 141.754 21.052 140.719 21.695 139.685 22.338 138.376 22.338 137.341 21.695 136.307 21.052 135.727 19.878 135.845 18.667 Z M140.844 18.667 C140.844 17.202 140.187 16.346 139.033 16.346 137.874 16.346 137.222 17.202 137.222 18.667 137.222 20.142 137.874 20.992 139.033 20.992 140.187 20.992 140.844 20.136 140.844 18.667 Z" fill="#ffffff" fill-opacity="1" stroke="none"/>
     <path id="Path-9" d="M144.004 15.292 L145.287 15.292 145.287 16.365 145.387 16.365 C145.733 15.575 146.543 15.092 147.403 15.162 148.068 15.112 148.721 15.367 149.176 15.856 149.63 16.345 149.838 17.014 149.741 17.674 L149.741 22.047 148.408 22.047 148.408 18.009 C148.408 16.923 147.936 16.384 146.95 16.384 146.498 16.363 146.06 16.54 145.75 16.869 145.44 17.198 145.289 17.646 145.337 18.095 L145.337 22.047 144.004 22.047 Z" fill="#ffffff" fill-opacity="1" stroke="none"/>
    </g>
   </g>
  </g>
 </g>
</svg>
