<svg version="1.0" xmlns="http://www.w3.org/2000/svg"
 width="206.000000pt" height="206.000000pt" viewBox="0 0 206.000000 206.000000"
 preserveAspectRatio="xMidYMid meet">

<g transform="translate(0.000000,206.000000) scale(0.100000,-0.100000)"
fill="#000000" stroke="none">
<path d="M926 1781 c-44 -75 -86 -148 -94 -162 -14 -25 -94 -74 -118 -73 -5 1
-8 -11 -6 -26 2 -15 -1 -43 -6 -63 -11 -39 -3 -48 18 -22 23 27 124 83 185
101 67 20 91 34 57 34 -33 0 -26 18 11 29 l32 9 -40 2 -40 2 30 9 c35 11 174
4 224 -10 43 -13 49 -9 17 12 -36 24 -149 48 -158 34 -15 -25 -22 9 -27 132
l-6 129 -79 -137z"/>
<path d="M526 1506 l35 -103 -36 -58 c-19 -32 -37 -66 -40 -74 -3 -9 -20 -25
-39 -35 -31 -16 -42 -29 -44 -46 0 -3 -9 -28 -20 -56 -16 -38 -18 -54 -9 -63
8 -8 -16 -11 -95 -11 -61 0 -110 -4 -113 -10 -6 -10 -5 -11 32 -15 21 -2 113
-51 113 -61 0 -2 -25 10 -55 27 -30 17 -55 29 -55 26 0 -12 111 -68 121 -61 7
4 9 3 6 -4 -4 -6 26 -29 71 -56 73 -43 79 -49 105 -109 l28 -64 -36 -104 c-38
-112 -39 -135 -3 -123 13 4 66 19 118 34 l95 26 -3 43 c-3 30 -1 41 7 37 6 -4
9 -11 6 -16 -3 -5 0 -12 6 -16 8 -5 9 -3 4 6 -5 8 -3 11 6 8 8 -3 13 -11 11
-17 -1 -6 18 -24 43 -39 63 -38 56 -49 -10 -14 -30 17 -55 27 -55 24 0 -13 17
-34 26 -33 17 1 63 -23 58 -31 -3 -4 5 -12 16 -18 11 -6 33 -33 48 -60 16 -28
32 -47 35 -43 4 3 7 1 7 -6 0 -7 9 -26 21 -42 11 -16 17 -34 13 -40 -5 -8 -3
-9 6 -4 10 6 12 4 7 -9 -5 -11 -3 -15 4 -10 7 4 10 1 7 -7 -3 -8 7 -36 21 -64
l26 -50 3 108 c3 105 3 107 26 107 13 0 43 7 66 15 41 14 42 14 37 -5 -8 -32
-1 -24 38 44 34 57 45 67 104 95 l66 32 100 -24 c55 -14 102 -23 105 -20 2 2
-35 42 -84 87 l-89 84 -55 -39 c-86 -60 -138 -77 -301 -93 -83 -9 -231 41
-314 106 l-37 30 -68 -55 c-37 -30 -85 -70 -106 -88 -30 -26 -38 -29 -32 -14
5 11 15 39 23 63 8 23 19 39 25 36 6 -4 13 -2 17 4 3 5 20 12 38 15 18 3 46
15 63 27 l30 22 -20 28 c-11 15 -20 31 -20 34 0 3 -11 17 -25 31 -13 15 -29
43 -35 63 -6 21 -16 46 -21 57 -5 11 -10 37 -12 57 -2 21 -7 41 -10 45 -12 12
-7 25 7 20 8 -3 17 -1 19 6 2 7 11 -22 21 -63 22 -100 63 -183 121 -248 95
-105 200 -144 377 -141 67 2 114 7 111 12 -3 5 4 6 17 2 15 -5 20 -4 16 4 -5
7 -1 8 10 4 13 -5 15 -3 9 7 -5 9 -4 11 4 6 36 -23 188 107 240 204 52 97 80
291 44 304 -7 3 -13 13 -13 22 0 16 1 16 18 1 33 -30 33 -18 0 31 -18 26 -41
63 -51 83 -57 111 -174 212 -287 247 -73 22 -206 22 -284 -2 -76 -23 -175 -85
-227 -144 -67 -75 -144 -267 -123 -305 4 -7 -1 -5 -10 3 -15 14 -15 21 -1 75
21 82 65 172 107 220 l36 40 -87 96 c-47 54 -91 99 -98 102 -6 3 4 -41 23 -97z
m660 -75 c78 -26 187 -131 205 -196 6 -22 20 -68 31 -103 24 -74 21 -151 -10
-243 -17 -53 -86 -149 -105 -149 -5 0 -4 7 3 15 7 9 10 18 6 22 -3 3 2 15 11
26 17 19 17 20 -4 8 -12 -6 -25 -16 -28 -21 -8 -13 -35 -13 -35 -1 0 5 9 13
21 16 11 4 27 22 36 41 10 20 20 29 23 23 12 -19 38 65 44 144 10 113 -18 209
-83 290 -47 58 -54 63 -128 86 -43 14 -82 27 -88 30 -5 3 -35 6 -65 7 -47 2
-64 -3 -115 -33 -33 -19 -75 -53 -94 -75 -19 -22 -45 -44 -58 -49 -29 -11 -39
-34 -25 -62 6 -12 13 -46 16 -75 4 -45 13 -64 59 -122 86 -110 125 -131 199
-104 39 13 41 14 57 14 5 0 23 12 40 26 37 31 41 76 12 140 -22 48 -63 69
-117 61 -32 -5 -34 -4 -22 10 11 15 10 16 -10 11 -38 -10 -23 23 23 49 49 28
38 30 -15 3 -31 -16 -39 -26 -42 -52 -2 -18 2 -50 9 -70 7 -21 9 -38 5 -38
-16 0 -33 62 -29 107 3 47 5 49 59 77 42 21 71 28 118 30 l63 1 27 -50 c23
-41 29 -66 33 -135 4 -80 3 -87 -18 -96 -15 -7 -24 -7 -31 1 -12 12 -7 35 8
35 6 0 8 -7 4 -15 -3 -8 -1 -15 4 -15 6 0 9 31 8 73 -1 40 -3 55 -5 35 -3 -25
-11 -42 -24 -48 -13 -8 -19 -21 -19 -48 0 -21 -7 -47 -15 -59 -18 -25 -83 -68
-92 -60 -3 4 -18 0 -34 -8 -69 -36 -132 -4 -214 108 -31 42 -59 77 -61 77 -3
0 21 -38 53 -84 37 -54 72 -92 96 -106 20 -12 37 -26 37 -31 0 -6 -5 -7 -12
-3 -7 4 -8 3 -4 -4 4 -7 2 -12 -3 -12 -6 0 -11 3 -11 8 -1 4 -10 18 -21 31
-18 22 -21 23 -38 7 -9 -9 -21 -13 -25 -9 -4 4 -4 0 0 -10 7 -20 20 -22 27 -4
5 13 38 -1 44 -20 5 -14 -40 -25 -48 -11 -4 6 -12 7 -19 3 -9 -5 -11 -4 -6 3
4 7 2 12 -5 12 -7 0 -9 9 -6 22 8 30 -20 63 -40 47 -10 -9 -12 -6 -7 19 4 19
1 32 -7 37 -9 6 -11 3 -6 -8 4 -11 2 -14 -9 -10 -8 3 -14 15 -12 27 2 11 -2
20 -8 19 -14 -3 -28 106 -25 182 4 69 24 112 77 161 52 47 155 101 218 114 54
10 159 2 222 -19z m-90 -55 c28 -1 62 -9 77 -19 14 -9 32 -17 38 -17 25 0 108
-105 125 -159 32 -102 24 -241 -14 -241 -11 0 -13 -3 -5 -11 18 -18 -10 -78
-50 -106 -21 -14 -37 -30 -37 -34 0 -24 -233 -99 -245 -79 -3 5 -13 6 -24 3
-21 -5 -98 14 -106 27 -3 5 11 12 32 16 21 3 46 13 56 22 9 8 17 11 17 7 0 -5
9 1 20 13 13 13 33 22 51 22 31 0 89 25 89 38 0 5 16 14 36 21 25 9 40 23 50
46 7 18 20 35 29 39 13 5 15 17 10 78 -4 40 -13 94 -20 121 -8 26 -12 47 -9
47 2 0 -5 9 -16 20 -11 11 -20 27 -20 35 0 26 -95 37 -170 21 -32 -8 -96 -47
-111 -69 -4 -5 -11 -7 -16 -4 -9 6 -12 -11 -13 -69 -1 -40 32 -97 65 -112 34
-15 89 3 79 27 -20 48 -18 53 16 49 46 -4 73 -54 56 -101 -15 -43 -41 -63 -99
-77 -37 -9 -54 -9 -77 0 -27 11 -120 118 -120 138 0 6 -6 13 -12 16 -10 5 -10
7 -1 12 10 4 10 9 0 24 -9 12 -11 35 -8 67 5 43 10 50 41 65 19 10 54 38 76
63 23 25 49 45 59 45 10 0 13 5 9 12 -4 7 -3 8 4 4 7 -4 20 -2 29 3 10 6 27 8
38 5 11 -3 43 -7 71 -8z m-106 -308 c0 -15 -20 -8 -30 11 -17 33 -11 47 10 21
11 -14 20 -28 20 -32z m-459 -236 c19 -20 37 -39 41 -42 3 -3 1 -16 -6 -29
l-13 -23 -23 36 c-12 21 -20 40 -16 43 3 4 0 13 -8 22 -19 22 -34 76 -40 141
-5 47 -3 44 13 -28 15 -66 25 -91 52 -120z m629 119 c0 -17 -106 -80 -155 -92
-27 -6 -59 -19 -70 -29 -21 -18 -124 -54 -132 -47 -2 3 17 13 44 22 26 9 55
21 63 26 29 18 55 28 110 43 34 9 71 29 95 50 45 39 45 39 45 27z m-636 -77
c3 -8 2 -12 -4 -9 -6 3 -10 10 -10 16 0 14 7 11 14 -7z m194 -124 c27 -32 34
-45 18 -30 -35 30 -86 99 -86 114 0 6 6 2 12 -9 6 -11 31 -45 56 -75z m170
-50 c70 -19 89 -21 127 -11 24 6 58 11 75 11 16 0 38 4 48 9 79 40 135 57 129
38 -6 -18 -127 -66 -167 -67 -19 0 -54 -7 -78 -15 -40 -14 -48 -14 -104 5 -34
11 -72 20 -85 20 -13 0 -35 11 -48 25 -31 31 -33 56 -2 28 12 -12 59 -31 105
-43z m-113 -100 c3 -6 -1 -7 -9 -4 -18 7 -21 14 -7 14 6 0 13 -4 16 -10z m740
-60 c3 -5 1 -10 -4 -10 -6 0 -11 5 -11 10 0 6 2 10 4 10 3 0 8 -4 11 -10z
m-645 -41 c13 -7 13 -8 0 -8 -8 0 -26 6 -40 15 l-25 15 25 -7 c14 -3 32 -10
40 -15z m130 -273 c0 -12 -5 -7 -19 24 -11 24 -11 24 3 6 9 -11 16 -24 16 -30z"/>
<path d="M711 1094 c0 -11 3 -14 6 -6 3 7 2 16 -1 19 -3 4 -6 -2 -5 -13z"/>
<path d="M520 813 c0 -5 9 -19 20 -33 l20 -25 -12 33 c-11 28 -28 44 -28 25z"/>
<path d="M1484 1543 c-27 -31 -57 -68 -67 -83 -17 -27 -17 -28 3 -33 17 -4 19
-3 9 9 -9 11 -9 14 1 14 6 0 14 -9 17 -20 3 -11 12 -20 20 -20 8 0 12 4 8 9
-3 5 -1 12 4 15 5 4 19 37 32 74 12 37 26 70 32 73 5 4 5 9 0 12 -5 3 -31 -19
-59 -50z"/>
<path d="M1491 1404 c0 -11 3 -14 6 -6 3 7 2 16 -1 19 -3 4 -6 -2 -5 -13z"/>
<path d="M1576 1224 c27 -62 37 -273 16 -333 -6 -17 -8 -30 -4 -28 91 51 322
191 322 196 0 3 -64 6 -142 6 l-143 0 0 30 c-1 51 -26 132 -46 151 -19 17 -19
17 -3 -22z m294 -179 c0 -2 -24 -17 -52 -31 -58 -29 -58 -23 0 12 38 23 52 28
52 19z m-124 -70 c-11 -8 -25 -15 -30 -15 -6 1 0 7 14 15 32 19 40 18 16 0z"/>
<path d="M366 1165 c-3 -8 -1 -15 4 -15 6 0 10 7 10 15 0 8 -2 15 -4 15 -2 0
-6 -7 -10 -15z"/>
<path d="M1506 854 c-14 -26 -26 -49 -26 -52 0 -3 -16 -24 -35 -48 -19 -23
-35 -45 -35 -47 0 -3 20 2 45 11 36 14 51 26 71 62 14 25 18 36 10 25 -16 -18
-16 -18 -11 15 4 19 8 45 11 58 7 33 -2 27 -30 -24z"/>
</g>
</svg>
