<svg width="180px" height="60px" viewBox="0 0 180 60" xmlns="http://www.w3.org/2000/svg" xmlns:xlink="http://www.w3.org/1999/xlink" version="1.1">
 <!-- Generated by Pixelmator Pro 2.0.5 -->
 <g id="app-store-badge">
  <g id="Badge">
   <g id="Group">
    <g id="Path">
     <path id="Path-1" d="M165.202 0 L14.302 0 C13.752 0 13.209 0 12.66 0.003 12.201 0.006 11.745 0.015 11.281 0.022 10.274 0.034 9.269 0.123 8.276 0.287 7.283 0.455 6.322 0.772 5.424 1.228 4.528 1.687 3.709 2.283 2.996 2.996 2.28 3.706 1.684 4.527 1.229 5.427 0.773 6.326 0.457 7.288 0.292 8.282 0.125 9.275 0.035 10.279 0.023 11.285 0.009 11.745 0.007 12.207 0 12.667 L0 47.338 C0.007 47.804 0.009 48.255 0.023 48.721 0.035 49.727 0.125 50.731 0.292 51.724 0.457 52.718 0.773 53.681 1.229 54.58 1.683 55.477 2.28 56.295 2.996 57.001 3.706 57.717 4.526 58.314 5.424 58.77 6.322 59.226 7.283 59.545 8.276 59.716 9.27 59.879 10.274 59.968 11.281 59.981 11.745 59.991 12.201 59.997 12.66 59.997 13.209 60 13.752 60 14.302 60 L165.202 60 C165.741 60 166.289 60 166.828 59.997 167.285 59.997 167.754 59.991 168.211 59.981 169.216 59.968 170.219 59.88 171.211 59.716 172.207 59.544 173.171 59.225 174.073 58.77 174.971 58.314 175.79 57.717 176.499 57.001 177.213 56.292 177.811 55.475 178.271 54.58 178.724 53.681 179.038 52.717 179.2 51.724 179.367 50.731 179.46 49.727 179.479 48.721 179.484 48.255 179.484 47.804 179.484 47.338 179.496 46.793 179.496 46.251 179.496 45.697 L179.496 14.304 C179.496 13.755 179.496 13.21 179.484 12.667 179.484 12.207 179.484 11.745 179.479 11.285 179.46 10.279 179.367 9.275 179.2 8.282 179.037 7.289 178.724 6.326 178.271 5.427 177.346 3.623 175.877 2.154 174.073 1.227 173.171 0.773 172.207 0.456 171.211 0.287 170.219 0.122 169.216 0.033 168.211 0.022 167.754 0.015 167.285 0.006 166.828 0.003 166.289 0 165.741 0 165.202 0 Z" fill="#a6a6a6" fill-opacity="1" stroke="none"/>
     <path id="Path-2" d="M12.667 58.688 C12.21 58.688 11.764 58.682 11.311 58.671 10.371 58.659 9.434 58.577 8.507 58.427 7.642 58.278 6.805 58.001 6.022 57.605 5.246 57.212 4.539 56.697 3.926 56.08 3.305 55.47 2.788 54.762 2.396 53.985 1.999 53.203 1.724 52.365 1.581 51.5 1.427 50.57 1.343 49.629 1.331 48.687 1.322 48.371 1.31 47.317 1.31 47.317 L1.31 12.667 C1.31 12.667 1.323 11.629 1.332 11.325 1.343 10.384 1.426 9.445 1.58 8.517 1.723 7.649 1.998 6.808 2.395 6.023 2.786 5.247 3.3 4.539 3.918 3.927 4.534 3.308 5.244 2.791 6.021 2.393 6.802 1.998 7.638 1.723 8.501 1.577 9.432 1.425 10.372 1.342 11.314 1.331 L12.668 1.313 166.821 1.313 168.19 1.332 C169.124 1.343 170.056 1.424 170.978 1.575 171.85 1.723 172.694 2 173.484 2.397 175.041 3.199 176.308 4.469 177.107 6.027 177.498 6.806 177.768 7.64 177.91 8.5 178.065 9.436 178.153 10.383 178.17 11.331 178.175 11.756 178.175 12.212 178.175 12.667 178.187 13.229 178.187 13.764 178.187 14.304 L178.187 45.697 C178.187 46.242 178.187 46.774 178.175 47.31 178.175 47.798 178.175 48.245 178.169 48.705 178.151 49.636 178.066 50.566 177.913 51.485 177.773 52.356 177.499 53.201 177.103 53.99 176.707 54.758 176.193 55.46 175.579 56.068 174.966 56.689 174.258 57.207 173.48 57.602 172.692 58.001 171.849 58.279 170.978 58.427 170.051 58.578 169.114 58.66 168.174 58.671 167.735 58.682 167.275 58.688 166.828 58.688 L165.202 58.69 Z" fill="#000000" fill-opacity="1" stroke="none"/>
    </g>
   </g>
   <path id="View-on-GitHub" d="M95.777 42.28 C94.251 42.28 93.001 41.752 92.027 40.694 91.012 39.632 90.504 38.179 90.504 36.335 90.504 34.47 91.017 32.976 92.043 31.851 93.069 30.726 94.426 30.163 96.113 30.163 97.577 30.163 98.753 30.534 99.641 31.276 100.529 32.019 101.038 32.944 101.168 34.054 L98.801 34.054 C98.618 33.267 98.173 32.718 97.465 32.405 97.069 32.233 96.629 32.147 96.145 32.147 95.217 32.147 94.456 32.498 93.859 33.198 93.263 33.899 92.965 34.952 92.965 36.358 92.965 37.775 93.288 38.778 93.934 39.366 94.579 39.955 95.314 40.249 96.137 40.249 96.944 40.249 97.605 40.016 98.121 39.55 98.637 39.084 98.954 38.473 99.074 37.718 L96.41 37.718 96.41 35.796 101.207 35.796 101.207 41.976 99.613 41.976 99.371 40.538 C98.908 41.085 98.491 41.47 98.121 41.694 97.486 42.085 96.704 42.28 95.777 42.28 Z M139.051 42.202 C138.348 42.202 137.783 42.062 137.355 41.78 137.1 41.614 136.824 41.322 136.527 40.905 L136.527 41.976 134.348 41.976 134.348 30.476 136.566 30.476 136.566 34.569 C136.848 34.173 137.158 33.871 137.496 33.663 137.897 33.403 138.408 33.272 139.027 33.272 140.147 33.272 141.023 33.676 141.656 34.483 142.289 35.291 142.605 36.332 142.605 37.608 142.605 38.931 142.293 40.028 141.668 40.897 141.043 41.767 140.171 42.202 139.051 42.202 Z M127.504 42.163 C126.243 42.163 125.395 41.71 124.957 40.804 124.712 40.304 124.59 39.567 124.59 38.593 L124.59 33.46 126.871 33.46 126.871 38.593 C126.871 39.077 126.928 39.442 127.043 39.687 127.246 40.119 127.645 40.335 128.238 40.335 128.999 40.335 129.52 40.028 129.801 39.413 129.947 39.08 130.02 38.64 130.02 38.093 L130.02 33.46 132.277 33.46 132.277 41.976 130.113 41.976 130.113 40.772 C130.092 40.798 130.04 40.877 129.957 41.007 129.874 41.137 129.775 41.252 129.66 41.351 129.311 41.663 128.974 41.877 128.648 41.991 128.323 42.106 127.941 42.163 127.504 42.163 Z M110.234 42.097 C109.387 42.081 108.794 41.897 108.457 41.546 108.207 41.291 108.082 40.897 108.082 40.366 L108.082 35.124 106.895 35.124 106.895 33.538 108.082 33.538 108.082 31.163 110.285 31.163 110.285 33.538 111.668 33.538 111.668 35.124 110.285 35.124 110.285 39.624 C110.285 39.973 110.329 40.19 110.418 40.276 110.507 40.362 110.777 40.405 111.23 40.405 111.298 40.405 111.37 40.404 111.445 40.401 111.521 40.399 111.595 40.395 111.668 40.39 L111.668 42.054 110.613 42.093 C110.482 42.097 110.355 42.099 110.234 42.097 Z M103.355 41.976 L103.355 33.46 105.613 33.46 105.613 41.976 103.355 41.976 Z M113.262 41.976 L113.262 30.46 115.645 30.46 115.645 34.851 120.145 34.851 120.145 30.46 122.535 30.46 122.535 41.976 120.145 41.976 120.145 36.835 115.645 36.835 115.645 41.976 113.262 41.976 Z M138.457 40.366 C139.03 40.366 139.475 40.134 139.793 39.671 140.111 39.207 140.27 38.598 140.27 37.843 140.27 37.239 140.191 36.739 140.035 36.343 139.738 35.593 139.191 35.218 138.395 35.218 137.587 35.218 137.033 35.585 136.73 36.319 136.574 36.71 136.496 37.215 136.496 37.835 136.496 38.564 136.658 39.168 136.98 39.647 137.303 40.127 137.796 40.366 138.457 40.366 Z M103.355 32.444 L103.355 30.39 105.613 30.39 105.613 32.444 103.355 32.444 Z M127.557 24.729 C126.693 24.729 126.008 24.437 125.5 23.853 124.992 23.269 124.738 22.485 124.738 21.501 124.738 20.446 125.006 19.606 125.541 18.981 126.076 18.356 126.795 18.044 127.697 18.044 128.506 18.044 129.189 18.313 129.748 18.853 130.307 19.392 130.586 20.185 130.586 21.231 130.586 22.243 130.34 23.079 129.848 23.739 129.355 24.399 128.592 24.729 127.557 24.729 Z M108.941 24.724 C108.16 24.724 107.498 24.438 106.955 23.87 106.412 23.302 106.141 22.507 106.141 21.483 106.141 20.476 106.414 19.657 106.961 19.028 107.508 18.399 108.223 18.085 109.105 18.085 109.551 18.085 109.982 18.188 110.4 18.397 110.818 18.606 111.137 18.878 111.355 19.21 111.566 19.526 111.707 19.895 111.777 20.317 111.84 20.606 111.871 21.067 111.871 21.7 L107.271 21.7 C107.291 22.337 107.441 22.847 107.723 23.231 108.004 23.616 108.439 23.81 109.029 23.81 109.58 23.81 110.02 23.628 110.348 23.265 110.535 23.054 110.668 22.81 110.746 22.532 L111.783 22.532 C111.756 22.763 111.666 23.019 111.512 23.302 111.357 23.585 111.184 23.817 110.992 23.997 110.672 24.31 110.275 24.52 109.803 24.63 109.549 24.692 109.262 24.724 108.941 24.724 Z M98.699 24.501 L95.564 15.894 96.854 15.894 99.326 23.224 101.77 15.894 103.076 15.894 99.936 24.501 98.699 24.501 Z M103.826 24.501 L103.826 18.255 104.898 18.255 104.898 24.501 103.826 24.501 Z M114.309 24.501 L112.498 18.226 113.652 18.226 114.859 23.171 116.084 18.226 117.268 18.226 118.498 23.142 119.781 18.226 120.836 18.226 119.014 24.501 117.918 24.501 116.641 19.644 115.404 24.501 114.309 24.501 Z M131.84 24.501 L131.84 18.226 132.842 18.226 132.842 19.116 C133.139 18.749 133.453 18.485 133.785 18.325 134.117 18.165 134.486 18.085 134.893 18.085 135.783 18.085 136.385 18.395 136.697 19.017 136.869 19.356 136.955 19.843 136.955 20.476 L136.955 24.501 135.883 24.501 135.883 20.546 C135.883 20.163 135.826 19.854 135.713 19.62 135.525 19.229 135.186 19.034 134.693 19.034 134.443 19.034 134.238 19.06 134.078 19.11 133.789 19.196 133.535 19.368 133.316 19.626 133.141 19.833 133.025 20.046 132.973 20.267 132.92 20.487 132.895 20.804 132.895 21.214 L132.895 24.501 131.84 24.501 Z M127.656 23.821 C128.355 23.821 128.834 23.556 129.094 23.026 129.354 22.497 129.484 21.909 129.484 21.261 129.484 20.675 129.391 20.198 129.203 19.831 128.906 19.253 128.395 18.964 127.668 18.964 127.023 18.964 126.555 19.21 126.262 19.702 125.969 20.194 125.822 20.788 125.822 21.483 125.822 22.151 125.969 22.708 126.262 23.153 126.555 23.599 127.02 23.821 127.656 23.821 Z M107.301 20.862 L110.787 20.862 C110.744 20.405 110.645 20.04 110.488 19.767 110.199 19.259 109.717 19.005 109.041 19.005 108.557 19.005 108.15 19.179 107.822 19.528 107.494 19.878 107.32 20.323 107.301 20.862 Z M103.826 17.089 L103.826 15.894 104.898 15.894 104.898 17.089 103.826 17.089 Z" fill="#ffffff" fill-opacity="1" stroke="none"/>
   <path id="logogithub" d="M38.172 10.651 C27.027 10.651 18 19.678 18 30.823 18 39.749 23.774 47.289 31.793 49.961 32.801 50.138 33.18 49.533 33.18 49.003 33.18 48.524 33.154 46.936 33.154 45.246 28.086 46.179 26.775 44.011 26.371 42.876 26.145 42.296 25.161 40.506 24.304 40.027 23.598 39.648 22.589 38.715 24.279 38.69 25.867 38.665 27.002 40.153 27.38 40.758 29.196 43.809 32.095 42.952 33.255 42.422 33.432 41.111 33.961 40.228 34.541 39.724 30.053 39.22 25.363 37.48 25.363 29.764 25.363 27.57 26.145 25.755 27.431 24.343 27.229 23.838 26.523 21.771 27.632 18.997 27.632 18.997 29.322 18.468 33.18 21.065 34.793 20.611 36.508 20.384 38.223 20.384 39.937 20.384 41.652 20.611 43.266 21.065 47.124 18.442 48.813 18.997 48.813 18.997 49.923 21.771 49.216 23.838 49.015 24.343 50.301 25.755 51.082 27.545 51.082 29.764 51.082 37.505 46.367 39.22 41.879 39.724 42.61 40.354 43.24 41.565 43.24 43.456 43.24 46.154 43.215 48.322 43.215 49.003 43.215 49.533 43.593 50.163 44.602 49.961 52.57 47.289 58.344 39.724 58.344 30.823 58.344 19.678 49.317 10.651 38.172 10.651 Z" fill="#ffffff" fill-opacity="1" stroke="none"/>
  </g>
 </g>
</svg>
